<svg width="248" height="176" viewBox="0 0 248 176" fill="none" xmlns="http://www.w3.org/2000/svg">
<path d="M0.346726 44.551C0.437672 31.8045 0.963296 24.5134 4.00116 18.7065C7.23242 12.5299 12.3884 7.50824 18.7301 4.36112C25.9397 0.783325 35.3775 0.783325 54.2532 0.783325H193.561C212.437 0.783325 221.874 0.783325 229.084 4.36112C235.426 7.50824 240.582 12.5299 243.813 18.7065C246.851 24.5134 247.376 31.8045 247.467 44.551H0.346726Z" fill="#007AFF"/>
<path fill-rule="evenodd" clip-rule="evenodd" d="M0.327698 66.4349V123.333C0.327698 141.717 0.327698 150.909 4.00116 157.931C7.23242 164.107 12.3884 169.129 18.7301 172.276C25.9397 175.854 35.3775 175.854 54.2532 175.854H193.561C212.437 175.854 221.874 175.854 229.084 172.276C235.426 169.129 240.582 164.107 243.813 157.931C247.486 150.909 247.486 141.717 247.486 123.333V66.4349H0.327698ZM34.0312 126.615C34.0312 121.517 34.0312 118.968 34.8863 116.957C36.0266 114.276 38.2136 112.146 40.9664 111.035C43.031 110.203 45.6483 110.203 50.8829 110.203H62.1174C67.352 110.203 69.9693 110.203 72.0339 111.035C74.7866 112.146 76.9737 114.276 78.1139 116.957C78.9691 118.968 78.9691 121.517 78.9691 126.615C78.9691 131.714 78.9691 134.263 78.1139 136.274C76.9737 138.955 74.7866 141.085 72.0339 142.195C69.9693 143.028 67.352 143.028 62.1174 143.028H50.8829C45.6483 143.028 43.031 143.028 40.9664 142.195C38.2136 141.085 36.0266 138.955 34.8863 136.274C34.0312 134.263 34.0312 131.714 34.0312 126.615Z" fill="#007AFF"/>
</svg>
