<svg width="391" height="308" viewBox="0 0 391 308" fill="none" xmlns="http://www.w3.org/2000/svg">
<path fill-rule="evenodd" clip-rule="evenodd" d="M16.1838 14.2302L20.5558 16.1221L187.961 89.7099C192.197 91.8465 197.665 91.5067 204.635 88.4105L373.679 14.0276C382.698 10.8064 377.777 0.782597 370.535 1.76935L366.163 1.75168L19.8725 0.377563C10.1698 0.782594 7.43774 10.4666 16.1838 14.2302ZM2.38039 52.988L164.18 303.029C169.237 311.204 181.947 306.594 181.674 299.264L181.401 127.727C181.265 118.01 178.668 115.887 172.655 113.23L10.8521 41.6362C4.83915 38.328 -2.94925 43.7661 2.38039 52.988ZM209.553 297.129L209.142 124.607C209.142 122.071 209.416 120.097 210.236 118.447C211.056 116.94 212.286 115.704 214.336 114.557C214.476 114.479 214.651 114.402 214.825 114.325C214.992 114.251 215.158 114.178 215.291 114.105L375.591 42.2253C386.251 37.229 393.492 45.7061 388.982 53.1543L374.225 75.8211V75.9353L371.628 79.8836L368.622 84.5292L228.001 301.18C221.305 310.858 209.689 308.754 209.553 297.129Z" fill="#007AFF"/>
</svg>
