<svg width="46" height="44" viewBox="0 0 46 44" fill="none" xmlns="http://www.w3.org/2000/svg">
<path fill-rule="evenodd" clip-rule="evenodd" d="M16.7609 14.8516V7.81029C16.7609 6.56173 17.3572 5.48953 18.1935 4.6422C19.0238 3.80089 20.1557 3.10757 21.4438 2.55554C24.0249 1.44937 27.4929 0.799423 31.25 0.799423C35.0071 0.799423 38.4751 1.44937 41.0562 2.55554C42.3443 3.10757 43.4762 3.80089 44.3065 4.6422C45.1428 5.48953 45.7391 6.56173 45.7391 7.81029V30.2451C45.7391 31.4936 45.1428 32.5658 44.3065 33.4132C43.4762 34.2545 42.3443 34.9478 41.0562 35.4998C38.4751 36.606 35.0071 37.2559 31.25 37.2559C30.7686 37.2559 30.2926 37.2453 29.8233 37.2244C29.7033 38.2878 29.1525 39.2096 28.4152 39.9566C27.5849 40.798 26.453 41.4913 25.1649 42.0433C22.5838 43.1495 19.1158 43.7994 15.3587 43.7994C11.6016 43.7994 8.13356 43.1495 5.55248 42.0433C4.26443 41.4913 3.13249 40.798 2.30219 39.9566C1.46594 39.1093 0.869568 38.0371 0.869568 36.7886V21.832C0.869568 20.5835 1.46594 19.5113 2.30219 18.6639C3.13249 17.8226 4.26443 17.1293 5.55248 16.5773C8.13356 15.4711 11.6016 14.8212 15.3587 14.8212C15.8311 14.8212 16.2988 14.8314 16.7609 14.8516ZM20.1895 6.61207C19.7013 7.10677 19.5652 7.51006 19.5652 7.81029C19.5652 8.11053 19.7013 8.51382 20.1895 9.00851C20.6836 9.50924 21.4682 10.0245 22.5485 10.4874C24.7039 11.4112 27.7794 12.0168 31.25 12.0168C34.7206 12.0168 37.7961 11.4112 39.9515 10.4874C41.0318 10.0245 41.8164 9.50924 42.3105 9.00851C42.7988 8.51382 42.9348 8.11053 42.9348 7.81029C42.9348 7.51006 42.7988 7.10677 42.3105 6.61207C41.8164 6.11135 41.0318 5.5961 39.9515 5.13315C37.7961 4.20938 34.7206 3.60377 31.25 3.60377C27.7794 3.60377 24.7039 4.20938 22.5485 5.13315C21.4682 5.5961 20.6836 6.11135 20.1895 6.61207ZM41.0562 13.065C41.7325 12.7752 42.3657 12.4465 42.9348 12.0778V15.2886C42.9348 15.5888 42.7987 15.9921 42.3105 16.4868C41.8164 16.9875 41.0318 17.5027 39.9515 17.9657C37.7961 18.8895 34.7206 19.4951 31.25 19.4951C30.4956 19.4951 29.7578 19.4664 29.0424 19.4117C28.8563 19.1462 28.6448 18.8966 28.4152 18.6639C27.5849 17.8226 26.453 17.1293 25.1649 16.5773C23.585 15.9002 21.6727 15.394 19.5652 15.1032V12.0778C20.1343 12.4465 20.7675 12.7752 21.4438 13.065C24.0249 14.1712 27.4929 14.8212 31.25 14.8212C35.0071 14.8212 38.4751 14.1712 41.0562 13.065ZM29.8478 34.4182C30.3077 34.4403 30.7756 34.4516 31.25 34.4516C34.7206 34.4516 37.7961 33.846 39.9515 32.9222C41.0318 32.4593 41.8164 31.944 42.3105 31.4433C42.7987 30.9486 42.9348 30.5453 42.9348 30.2451V27.0343C42.3657 27.403 41.7325 27.7317 41.0562 28.0216C38.4751 29.1277 35.0071 29.7777 31.25 29.7777C30.777 29.7777 30.3092 29.7674 29.8478 29.7473V34.4182ZM29.8478 26.94C30.3077 26.962 30.7756 26.9733 31.25 26.9733C34.7206 26.9733 37.7961 26.3677 39.9515 25.444C41.0318 24.981 41.8164 24.4658 42.3105 23.965C42.7987 23.4703 42.9348 23.067 42.9348 22.7668V19.556C42.3657 19.9247 41.7325 20.2535 41.0562 20.5433C38.4751 21.6495 35.0071 22.2994 31.25 22.2994C30.777 22.2994 30.3092 22.2891 29.8478 22.269V26.94ZM3.67392 21.832C3.67392 21.5318 3.80995 21.1285 4.29817 20.6338C4.79234 20.1331 5.57694 19.6178 6.65717 19.1549C8.81263 18.2311 11.8881 17.6255 15.3587 17.6255C18.8293 17.6255 21.9048 18.2311 24.0602 19.1549C25.1405 19.6178 25.9251 20.1331 26.4192 20.6338C26.9074 21.1285 27.0435 21.5318 27.0435 21.832C27.0435 22.1323 26.9074 22.5356 26.4192 23.0303C25.9251 23.531 25.1405 24.0462 24.0602 24.5092C21.9048 25.4329 18.8293 26.0386 15.3587 26.0386C11.8881 26.0386 8.81263 25.4329 6.65717 24.5092C5.57694 24.0462 4.79234 23.531 4.29817 23.0303C3.80995 22.5356 3.67392 22.1323 3.67392 21.832ZM25.1649 27.0868C25.8412 26.797 26.4744 26.4682 27.0435 26.0995V29.3103C27.0435 29.6105 26.9074 30.0138 26.4192 30.5085C25.9251 31.0092 25.1405 31.5245 24.0602 31.9874C21.9048 32.9112 18.8293 33.5168 15.3587 33.5168C11.8881 33.5168 8.81263 32.9112 6.65717 31.9874C5.57694 31.5245 4.79234 31.0092 4.29817 30.5085C3.80995 30.0138 3.67392 29.6105 3.67392 29.3103V26.0995C4.24303 26.4682 4.87624 26.797 5.55248 27.0868C8.13356 28.193 11.6016 28.8429 15.3587 28.8429C19.1158 28.8429 22.5838 28.193 25.1649 27.0868ZM25.1649 34.565C25.8412 34.2752 26.4744 33.9465 27.0435 33.5778V36.7886C27.0435 37.0888 26.9074 37.4921 26.4192 37.9868C25.9251 38.4875 25.1405 39.0027 24.0602 39.4657C21.9048 40.3895 18.8293 40.9951 15.3587 40.9951C11.8881 40.9951 8.81263 40.3895 6.65717 39.4657C5.57694 39.0027 4.79234 38.4875 4.29817 37.9868C3.80995 37.4921 3.67392 37.0888 3.67392 36.7886V33.5778C4.24303 33.9465 4.87624 34.2752 5.55248 34.565C8.13356 35.6712 11.6016 36.3212 15.3587 36.3212C19.1158 36.3212 22.5838 35.6712 25.1649 34.565Z" fill="#007AFF"/>
</svg>
